<mxfile host="app.diagrams.net" agent="Mozilla/5.0 (Windows NT 10.0; Win64; x64) AppleWebKit/537.36 (KHTML, like Gecko) Chrome/127.0.0.0 Safari/537.36" version="24.7.6">
  <diagram name="Page-1" id="vaia7ydzhJeiPDppZOCL">
    <mxGraphModel dx="1034" dy="454" grid="1" gridSize="10" guides="1" tooltips="1" connect="1" arrows="1" fold="1" page="1" pageScale="1" pageWidth="850" pageHeight="1100" math="0" shadow="0">
      <root>
        <mxCell id="0" />
        <mxCell id="1" parent="0" />
        <mxCell id="uWa4Y4YpGsrMZBW03cNe-1" value="" style="shape=image;verticalLabelPosition=bottom;labelBackgroundColor=default;verticalAlign=top;aspect=fixed;imageAspect=0;image=data:image/png,iVBORw0KGgoAAAANSUhEUgAAAQMAAAEZCAYAAACTnEA2AAAAAXNSR0IArs4c6QAAIABJREFUeF7sfQdcG1e2/qjRcY1tXLANBlzjQnXHYElgWpzYOJt975/dje1kU3fj9E12U7a+9/bte/t++3ZfNrtJbCPc44btOHEJpggQphpsB3DDFfdKkTTz/31XuvIgBBqBJISZSWShmTt37px77nfPOffccySMeIgUECkgUoBhGIlIBZECIgVECoACIhiIfCBSQKQAoUCfBAOO49BuL4ZhDAzDyMzvwX8X/t9cJ31t63xnZXvKLkLqFVLGkXb0tL6e3s9vq7v4zLrf6W/rd2F5jUMZ6+uWeiQSCb+sI/Tvc2Xd1UlOIcylS5eGHT9+PLKhoWHanTt3hhmNRi+9Xu8tMR0cy5J+k/JAjsN5+nD6N8dx5Jz1b1uNRMVCGk/r5Ndrvq/ds2hdXZS3PI5fxroNtF1dlRHSbj59bLVNSB32ygiloXU9ZtC3Wb11nSiLw8wDlnsIY3AcJ5VKGVqf+Z1Jv7IsK+XxAa0D16QoL5VKDXK5vDU8PLwiMjJyz7hx427ae9++el0Qo3vCy504cWJiVVWV6ujRo0/V1NRMvnTp0sDm5mYfLy8vwhd0zGKcm8c6aTb/b6v3oCCBb/7MYG9G7K7UYRlrLqSnvbZ3GG822mJdh73f3X0dobzXVTlb19qd42E5f7bn41678gAAMw+Rb6lUagwMDGyOjIw8mpCQkD1t2rTvwsPDz0kkEkilj9QhtEN67aUvX77sf/To0eTc3NxnS0pK5pw/f35YS0uLZfDrW9s6HfTmznRp24nC0oPjodzSvUr6+/NtCW4ChTkT30geThj8iYPWYTQaGYVCwQwZMoQZNWrUuRkzZhQkJSVlK5XKnO71mOfe1UNWdv2L7d+/P62oqOj5nJycJeXl5XKDwcAMGDCA8fPzg4jHSBkJgw6j4iHEQXQkOhbnHGGM7rxNfx+Mvf7+HNeuj2l/8yXFrvqVggFfogQP0Q/quX//PtPa2krORURE3F22bNmOlJSUT4OCgo4HBwff6A7feOI9Hg0G1dXVE3bu3PmLffv2/eD8+fN+6BQMcF9fX/IBCDAsx+j1egYggc7y8vJyGxB4Yof2tzbxwZ7O7NaqIX+g81VKqkZ2BSCQCuRyOXP79m0CCgEBAcyIESOao6OjahMTlJpEVWLWyJEjrz4KdPdoMMjLy1N++umnf8rLy3u8ubmZiGvoGPoBAMgkUotkQJmAdjjAgQCGePQaBXoqmXVh8xH0Tp0BBAUCmUxGJAtb7cS99HpbWxvhJUgI4MUxY8YwcXFxdSlpqf8bEhKijYmJKRHUIA8u5LFgUFNT41VdXf2Tf/zjH78qKSkZhYEN9QBAgI5DJ0FKMLTpCXlxHb/RaehEqiqgnHj0TwpQHqBvb2vAU3WAqpUoCx6j6iakTnzAR/7+/oS3bt40LSgMGzaMGR404mpCQkLOsmXL/jRlypRjfZnSHgsG1dXVI4qKil7etGnTKzqdbjCkgsDAQDLIaeeQzjaaloGpFAAw4INFX+6cR6HtPZ3Z7UkW9uqns35n9WACobM/rQu8hIPanKgK6uPjQ6RTSAhQGfCReymYmJiYa8nJyRtnz569NSQkpGzYsGF3+2LfeSwY1NbWjsvNzX118+bNz5eXlweiIwYOHEhojNUEiuRecoXlb3QeXUFA57vDgNgXO92dbbY3WO21xVEwsH4eneGplMCXAPg2A5QDKFAgwIDHB7+pWorfAAb8poAgkUmJxDBs2LDmuLi40oyMjP+ZMGFCTkhISIu9d/O06x4NBvn5+S9t3LjxpbKysgAYBgEGVDKgKoFCJidGHVwbPmz47ceGPXZZJpO1tra2+sChRMpTE7CKZO4Aq7VzkxMSw5gW+njlsPTk6Np9hz6WcF17enZ4BtfxmVxHLzm0tsdtc4ghu0ULSltCWdv8ZkUfTvKQXhLqJWs+R2nJmbrJUh80Q/ou1oAAnpFKpIRWHMMyEkaCZSaDRCIhOubNmzdGNTVdDbp16xaxB2CgU+mSTi5ULaWSJyQEHPce3CeSKs6HhIQwKpWqcN68eVlTpkw5PHHixBMO0beXC3ssGNTU1IwtKip6ccOGDS+XlpYGAo0x6GmnoMMePHjA+Pn4kk6YNm3a7dmz4z6bFRWV5e/vf/vB7QeDZTLW2MqyvnwaW3vsCfXgs/Z4E+JV11Xd/GtyHvdynNwywDk5fyCZ3kJIe4WUseY7RU+n8E4YmVMoBAGWRN8eKCQSPeFNvdm9VOg4MRqNUj49W1lWJpPJ8A9L6aLgFBzjxeilUimpvqqiSpWff+SlqqrqyefOnWPu3r1LZn+sWGESgjQAfqOrEvxlbKgJuA7DIgAE/giTJk1qTElJ+VylUv197NixF4W2vbfLeSwYQE3QarU/Xbdu3ctQE4DEMCBCLTByLNPa3MIAyXFu8uTJ0NsuLl6sfEepVmb1NlHF5/ctCui02nl79u77uFCrXVxfX0/4ivIbsR7AldloZPRmiYGqHFSFodICQAFAMnjwYCYhIeHcvAXzN8fExGyeOXNmBZVCPJkyHgsGx48fH19YWLhasy7rlbLysgFAahgQvWHA4ThG39rK3Lx9m5wLDw9nIiMjLycnJ72vSkr63JMJLrbN8yhQUFCwcF/O3o91pbpFpxsamOvXrzPe3t7EsQ2TT6u+jSiQUrlpGRJAgW/YriCdoiyVIAAGAIVBgwYxQ4cNa05ZknwoNSXjj9Gzo/M93YXZY8EAkgHAIDtL80pZWdlALzMYoCMgrkEsgyOI/0MwuKJWJ72ftCTpn57HbmKLPJkChYWF8Xtycj7RlegWAgxu3LjB+Hr7EMMgBjZdkcDfBtbYzqBIQMJsfMQ7UoBAOZyfNWtWa3x8/JHomOj1EZMnfxMaGnrFU2nxKIFBU1JS8vuqJNU/be3E89QOENvV+xQoKipKyNm56+PikpIFAAP4EcAWBTCgKwh0ZQomS/6q1aABA4kBER96HpMVwAD3QmIYPnw4ExUVdTwjPeO/4ubP3TR06NA7vf/WHVvwSIGBOjnpl2q1+jMRDDyR1Ty3TYWFhYv35OR8VFJcMt8aDCAVQArFACeu7hKGrDjQJUbsjeEvS1J7AuxaAId79+4Ro/e4ceOYuXPnnoiKiV73+JQp+2dER5d5GkU8FgwsNoP1WS8LUROiIiOvqtXJv1QlqwAG/SYghacxVF9sT0lJyeJdO3Z+VFJiAgOqJsBmQJYleZvfYDcAKOCA4RBlMdhxDh8KBgALgAGAhGyok0qJDWLq449fyshI/3zhokVfTpgw4awnGRY9Ggy0Wu3zWevWw8/Ars0AYKBKTvpArVb/QwSDvjgke6/NWq1WuWd3zsclJSVzrcEArcJgx+CGPWB40AiI/LcCAwdcbGw8O7y6+thjMCJi0MOehQGP8pAkoCZQHwSqSjxmUhmuxMXG7psydcr+KdOm7QwODm7uvbd/+GSPBYMTJ06EFBQUPK9Zl/USVhPsGRABBklJ6vdVycmfeQJhxTb0HQoADHbv2v0bXUlJHFUTqAERMzqAAK7HUA8mTZnMPPODZ3ZFTJ647dyZcxMKCvLTTp06Ne3s2bNeAAT4JmDlC9IA3VqP31hxQD0PWlrI+dDQUH3i4sVH0jPS/2306NFHPWErtMeCwffffx+an59PJYNAIWCgXpL8C0gGfYcNxZZ6AgVMYLDr9yXFJdEAA/gZwIAIJzdqM4BUADAImRDKPLdy1eeJqsW/1uv1PpfOXwrPP5L71DfffvN0Q0ODLwY8Bj7c5/FN3ZshGZCYCHI5kTAgRUyfPp2dPnNGSWRk5IaoqKjtYWFhjb1JD48Fg5qamjCtVvvCBk32C/BABBjAwQhEpK7IWNP1Cwgw+xlEXVWpVO+JS4u9yU5989kFBQXqHIBBiS7yzKlT7VYTMJgpEMBGED4xgslckbklNSPjg8mTJ3+PN87/Ln/Bxi0bX8/97rv0S5cuyVEOEgKcj8hypHl5EuqDUW/aZYu/7z14wAQMCGTmz59/+oknnviPxx9/PKc3AcFjwaCurm5Cbm7uTzdosn9aWloaYB8MIpuS1Kp3VcnJX/RNlhRb3VsUKC4uTty5Y+cfdCUlMQADGAXp0iLdCwNAwMweFhHOLFu27KtkteqTaZGRlWgzx3GK3Nzc+QW5eU9/dyT36ZqamkGwI0CygO0AwIB6TMF4TLZtYlw0B+V5bPgwZurUqZfi4uJ2LF68eH1kZKS2N2jhsWAANeHIkSOQDF46evQoAQN4G9ItpEBfLNtQySAqMvKKSpX0rnqJ+sveIKT4zL5LgZKSkvhdO3b8W0mJLs4aDPBWGMTUmQhgkJmZuWVxovr3M2NmlvPfuqysbMaBb775UW5u7tMnT34/CqACdYHGQSAqBM9pzsCypF54OELqxf6a1NTU7MTExM8DAgKOuXvno8eCAUKeabXalZs2bHz56NGjFgMiNc5QMIAHYlhYGNyRL6mS1O8lJSWt7btsKba8Nyig1WoX7d61G5JBOzDAygCNk4GZHmppxKSJzA+e+YEmLTn5NxOnT++wK7GqqmpSTVXN4m8PfPNCbm7u43BgghRgsSOYdzsS1UEmI8uTLW2mTU6QIEJCQu7FxsZqExIS1iUnJ2+VSCRu2wrtyWAQXFRU9OzG7A2vl5WVDaWSAdG7zEs2kAx4YHAxSa16T5WcvK43GEp8Zt+lADwQd+/Y9bsSXcls/moCwIDGLgCvUTD4l3/5l/VJqSm/njJlSp2tt25sbPTVFmh/vHvXzteOnzgx6dSpUwRUINliwxMO4rsgkxFJt81giuGJ+gEOwcHBzJIlS4qffPLJP4wdO7Z4/Pjxl9xBXY8Fg7q6umF5eXn/qlmf9W5ZWdlwazAA0bDcYwGDWZHnk5PV7yqTkjTuIJz4jEeHAtibsDdn7+9LSornWO9NoJMPVhIwWGFAfPrppzckJ6l/O3XmzJrOqNDY2Di6trp2fnGx9gd79+1LPXv2rILaDGBLAMhgFyTAgO5jgE0CEgikBADCtGnTTi1cuFCzaNGiteHh4Q2uprjHgsGJEydGIVfCpo2b1pSXlQ2DrkXjGQBFsVTTDgwiIxuT1MnvqpJV2a4mmlj/o0WBzsCAqgnUkxADNTRsArN8+fJtS5LUv6YGxK6okXsoN2Pf/n3Plx09Or+urm7g3du3SSAegAzAAHzMSCVEjaDRufAc8DY8GtVq9fnk5OR/RkdH75wyZUqlKx3qug0GyFhlncrMTBTUST5nzpyx1D9+/HgEkiAyEsdxcnxjS6f5b+TGsoQxRlab0tLSqXl5eS/s2Z3zbFlZ2YDOwACiV6jJZiCCwaM1Rt32NlRN0JXqiJqALcxwOqLuyHQp+0FLM7FPPfXUsh1q1eJPZsbEtDMg2mowx3FeOp1udlVFVcrXX+97rvzo0WGQAEgcT4WCUXh7WcKt0WC+qAeSCMBhYOAAZvLUKTemTp2qxb6bhISE3a4CBMFgcOPGjYF3mpqGXLt1a/SV69fHsnrWWyJHajtWLpfL9TKZjAxmCcuaU94hx51BajQaZRwn5SRyiV4ul7dJpVKsrUgMBgOJG8GyLOJHAQz03t7ed3zlvvduP7j92OmGhrmnT59R5uXmRiH6DJZosEcceRLQOSDm9Zs3SIc9/vjjTFRMzJnFicr3lEnKjW7jIvFBjwQFYEDM2bn799RmQFcBwFtmHiVWf3wiIiKYZcsztyuTVJ/MmjWrQigBTp48OWnn9p0/P3asWl1bWxty/vx5MtgRKQkHwvdZlh/NaQGJjwIxMLaBx/UZT2TsiI2O3jB9/PhDQyZMuC302ULL2QWDkydPPtbY2Di/vKw8+fjx2timK1ceMxpZX5ZlZQgxJZPLOZlUisFMBilrAgNLwtPW1lYktmSlchkHwLDeUWg0GmkbcKNBLpMbYFp50Pwg8N69e4MgViFuAQ1VDTDAgY5Bp8FpY8qUKQQMlItV7yqTlJuEvrxYTqQAKFBcUJy4K2fn73U6XSy1GdAlQVzn50sIiyBOR18lJSZ//HjU41WOUPDs2bODGxoaErdu3vKrI0eOTAf/YiUB6oC/r2lTFPgaIODj5UXsCVAZcA5L6MHBweyMmTOrU5ek/k90XPSmoKCg+448317ZLsEAAUaqK6ufKC4ueq68vHxqXV2dHLoMCEXjwtHAD3RjBo0PR8NPYwYnZWSmlFU0jhwNOAlC8zd2YLCDCPjgvMK86YNGrqXBJEAguI0OHDyIeCDOjIw8q05Oek+tVm+w99LidZECfAqUFBYu3rk75w86nS6a+hl0CQaZy7epkpI+nj59erWjlLx69WrgoQOHni0q0j5VVlY299z5Rh+SO5RjCM/T8QG+p2HVMEbazPsjYFhMTkoqnbdwwWczZszYHxoaetbRNnRWvlMwQEDS8qNH/2Xnzp0vlpdXBGNphW7nRKOpf7V1aHIKBhQk6DeMJHzAICISLyEKrkFnQlIUgAbNniQxZ7WhqgEyKAEYUBaoOWDQQGb8+PHM4zNmnFcnJ72fkpIiLi06izv6ST3FhYVJu3bn/E6n00XSpUW+sxB4j7okQzJYkZm5XZWc9GF3wAAkhR2hqqpqWs7unBdy9uT867lz5/xuXLtOJlkYF+FvAB0aEykN7Q7dGpMfpIjRo0djVaNx4cKFG5KSkv4zLCysyRldZRMMampqhlRVVPwoP7/glX379oWePXuW6OZoKJ2xYeCgeQ1pcAe6l9usLph0IbOTBU1wSSUKeg/qIJmRzD7ckAz49QEMUC9Nb4WYdLhO8yv6+vsxY8eOZaZMm3YxOTnpg9T0dNEd2Rmc0Y/qKCwsTN6ze8/vSkqKZ/ElA/A8ncBoWrXwiROZ5ZmZO5Yol3zoqJpgTdK8vLxFBw8eXF5WVvZEZXnFGEy4NPYilYipSoygrJTn0Raox/PmzbuQlJT0xaRJkw7MmTOnoKcxFm2CwYEDB1R7duX8prikOLaxsZGsr9Kw0ZjNMYAxOPmDHrM1TWXGDxWFlyNoaH4S3dpJ1QRqa6Cx6uVSUyILS7ILni83yvp4meqjFllvXx9TqPTp0y+ok5N+IUoG/WgUO+lV+WDAlwz4YNBOMljx9E6lWvlhpHlvQk+acfHixce++eabH+7ZnfNKdXV1ODwWwftYPaMSMomq5GVadcC1O3fuMM2tLczIkSORBPbOggULvlOpVJ+GhoYe7klsBJtgsHHjxhfWfbn2k9ra2uEY9DhotBeix5t1GzSSxHszf9MyNBsNBj6VDKAmUMmBhuin1lOqfpC8d8zDdOooJ+dlusGzARY4T9diIRkgVHpkdMxZ5WIlDIjiakJPuLMf3mtLMsDkZwsMJoSHMyucCAYgd21tbXhRQdESbbH2yarKykVYaUD0b6piQ33w8vGxgAFxxX9wn0zIGF9Tp05tmTdv3pHY2NjsmJiYPaNGjbrWnW7sAAYcx8m++OKL1z//xz/fP3PmzCBUSl0y+UZBmnKK7ubigwad1dvl5ZCawkfhoIEj+SGlzLoUwxpM7ga0fn9zsAgLqLAcAQOIVEDRwIEDmJkzZzKz58xpSEhY/HZ8YvxX3SGEeE//pQAFA52uxKImAAzoBiNMblCLMQGR1YTMzB3qxUmfWG9U6gkF4W9z6NChxB3bd7z83eHD6ZcvXpTguQAC4vwkl5NJF+MMkjmWJCGxowyk76FDh2IcnEhKSvrbokWLNnQnTXwHMDh9+rTPt99++/qXn3/xTn19/UBKEP6LYjDyVxH4VlDiUcUw5CVopBeqJliMiebKqD5Gy+NFIRnQRJcEfMzho+huRW+FF6kXnYOlGawmmJYWY8+qVYvfTlSpNvekU8R7+x8FiguLk3btRjwDk82AREf28yNgQLcw0yU+2AyWPvnkNnViwh8i4+JKnUktbIX+9uuvVfl5BSlHS0uXnjh5YjTGBCZGajOgUZOw0xHjB+MNYwEHbGeIwhwXF7chNjZ2tyN+ELi/AxhcvHjRb9++fa99/s/P362vqxtIHS+oCkB1fqo6YOtlUFAQbAp3WNbItbWZEmL5+voaJRIp19bWSnKim20G8DUgP0liQ47jzMZDqUwm49ra2mTeCi8DfBVYlvVtaWnxutbURKyohCAAGS+T2yaIBE8xGFImTpzIzIqMOq9MUv0iOTl5vTM7SKzr0aeASTLI+a31agLlfVCASgYRkyZxmcuXZykT1P8xPdrxpUUh1Kyvrx+ee+DAv+7avfvVurr68eB/TmJyWaaTIvwTMJZwjho3MUlCogkPD7+UnJy8RaVSrY12IApzBzC4fPmy/549e15d+/mX79Y31A+kuer59gCaxhoNgyPE3HnzvpkQOqEACU+NRqMcPkdyuZzI+w8etPjiN2dyRGLNHogmfJBIAAY4AAYGODF5y71bWtta/a5duzbx3Lmz8yrLyyecPn3a5K0llxMwoGoLwMAvwJ+4iE6fOfOiWp30y5S0FDGjkhCOE8tYKFBYWJi0Z/ee3+p0JVF0NYFa9akqC/8aGO4gGazARqXFib+fHh3tsJ+BULLXVVdPyC3QPqkrLXnmaOnRyIuXLxP1gC6rIxQ7tWlQd2kAFj5w0Y+Jibkwf/78nZGRkftCQ0O/DQ8Pb7X37A5gAKeInTt3vrJ+7bp3GhoaBtIwz/xU1aiUGlhiY2Mbf/DDZ95avHjxLolEQuQV7C2g+xNgIqCNsJXPwFwWg/1hwlGOk+t0ummVR8t/smXL5tWVlZW+eD5UD7htUjCAmuAfGEDA4PGZM8+rleoPlqQtEeMZ2Ot18Xo7ChQVFKl35exCQFQS6QhqAt/PAOI4BhnsVDAgPrl06cF5Cxf8cdSoUaURERG36+vrpf7+/jKFQiGT3pJKbklvYTLEBCeVNcuk9yX3Jf6cP4f/jUYjazAYyJgYMGAA29raatDr9d5tbW1E9IVr//jx4++dP39e0XKrZdSB3P2vfbP/m1XVNTV+dAWPSOVyGQEDup+Bqu401qLZjnB30aJFedjoNGnSpL32gqV0AIPr168P2L59+8t8MKDLgGgEXTkAGGAXYVxc3OmVz6366ex5s79xJo/V1taOLC0pXZ2dtX6NTqcbSFw2/f0ZOB1RPwOITwAD+IvPnBV5TqVSv69eohYTrzqzI/pBXSYw2Pnr4qLiWIABCYhqthlQuxYJQtLSwgweOhT7BO6Fhk4oe2zIkBpfX+9bBgMrNRgNCo41YqOBnGMZOSeRyBiWlbMMi0GOtTSOkWBfDstKGamB2NElnJGTSPRw7eeMRolc4aX3Uni1eHsrHsilciNnNPqfqPteVV1VNevCpUsWV2ViSzN79FI7HHX2o6kH0Vaci4iIaJs9e3bh3Llzt8bFxeV05bFoEwx27Njx0rov175TV1c3iAIBteaDKEAfOjhnz559ZuVzq16eHz9/rzP55uTJk6ML8/NfyM7SvFZSUkJsF2QLs8S0IoGXBVJjaXHSpEnMrKios2qV8n0xnoEze6F/1FWUX6TauXvHr0vMkY74BkTqS0MNiUj6S5OoEBd5bJ3jyOY5abvVsy5IR8tBPMDk6uXjTZbMqeMd8S+QyTipVCrBDE92MJqD+mD8EX8DCZHAifqM33SFjiZyQTn6wQa/6dOnn3riiSc+S0xMXB8cHHzBVvNsgsGuXbte/PLzL94FGFBvQJp5FsYKur6JmTouLu7cyp/8+LWFiYk7nck6dZV1Y3KLD7+yMXvDSzqdLpBKIlATcECHg4UXYEAMiFFRZ1VK9QeiZODMXugfdSEg6p5duz8s0ZkSr8IWhUFFdXJQgXrbYo8AyX/w4AEZjJia6ODm77uxtXJGqckHA7L/QCohbvgwAFr25UhM/jbEtwZ5F3x9yXV8MCZZxuSpSwGBSgYUqKhTHgWEESNGIL1b/bx58zbMmTNniy1X6g5ggK3K27ZtezFr3XosLRLJgBrv8HCyf8AcGx4zdWxs7Nln/9+PXl+0eNF2Z7JOXV3dmNzDh1/dvHHTiwADut5KPRBhzIF0ADDA2m8kNiqplB+olywR1QRndkQ/qKukpGThvr173y7VlaYCDK5evUoGIXgOH2owJ0F1jEbLciMxLprichAqWbxmzefoYOWTkJal5yAdEAsb+3C5HpI36qWzPJn1zbuCqSEfodIAEhSAABIUPAhISaXkfkgVAAYcGK8RERGnn3nmmb/+6Ec/+k9rG55NMPjqq69eWvfF2ncaTjUMpIZDuqpA00XhQbBaRsVEN65evfrlBQsW7HYm35CMSnl5L2o02S+Wl5dboiPTgKj61jbm9t07pujIEyOwvnpWrVYjvZoIBs7siH5QV1VV1eOV5eXL8vLyV+3fv3/0ucZzzJDBQ4gjDyY/61meDnzyzYtpSDxoeY511pv2rElJPHA5i93cAij8cvzZnwIJv17+lgDq4Yv76bYBmh0aoIBQABEREc3PPfeTz9KfeOL3ISEhl9sBlXUDIRl4Ahh8X/V9aF5x3ksaTdYLAsHgnFKp/ED0M+gHo9fJr4h1/cYzjXPz8nJXf7V9+5Ljx49L6MY8PMoSmcgsLdBEPpAUkAeB6u10mz01OtrawUubTgc2Hwz46oa1SkGBhtZNy9Jn8lf76D4f/tYBSNGwhSAb9L/8yw83pz/xxMdTp06tdTYYnF+5cuXL8fHxu5zZR2SdVVv8cna25vny8nJ/GhC1C8lABANndkA/qwvOdtUV1U9u3bbl7cLCwulNTU3ELkVtZtQ93nrmZ83Zkmg5OpPzd+dSyYKvInQGBrYAgYINv24KNBj4kNJhaKTSO19yoc+BhADVGtufMzOXH0hdkv5h7NzYwj4BBkivVlRY+LImK/v58opyPwFg0KhUKt8XJYN+Noqd+LpnzpwZqdVqf6AtKPxBaWnp48ePH/fF4KSDDY+i24jxN9HfeWI+30WfeupSHZ9/jQ5Qe2oC1f0tzzLbJqh9gNZJjYwUkEi9RqPFDQD3oz0wegIMlj311JHUJekfxM2Py+sTYICdXNoC7SsmFxzUAAAgAElEQVQaTdbq8vJyX4FgADVBDG7ixAHS36pCiPOG7xtiyyrKllRXVc+/erVp9N27dwdgViWJU82Bd+h2fagJ1no736DI38fDn7EtaoB5gHdGZ2oHoPVQyYGqDfhGu6AG0H1BdKmRrjzQVQjYDRApaemTTx5OTU79wBWSwYWVK1e+5Gw14fjx4xGF+fmvaDTZAAMfAWBw3iwZiGDQ30awk98XO3ePHz8++cK5c9Nrj5+cf+1aU9iVy1dGPnjwwFcuV0h8/fwMCrmcw257o94gZVkjAv+S3fdSk1Mci305WIgzGAzYqmNpoXkwW06Q6MD86wzqQHEJcSVgTC772KtjWrjABYbh5HI5Cxd+hVxhuHq1KehcY+MwrIJQZyMKFqibphaAZIDNTMuWLT+QkpbyQXR0dLGzJYMLq1evftEFqwkTC4/kv5KVrVklFAxUKtUHYno1J4+MflwdXPPv3r075P79+wObm5sHGVpb/RC1Vy6XG2QymV4qlRqx2U5ilGCwyjgZR/6RSqRGTo7zRjgiIRIwJyU7cExLDRJzEGDWFCmcHKgH3zJW9vCcnEM1AAOZUSpFXZyUNdehkBgQbZxtZWXHv69JKCkpfaGqqjIEwYggxVD3faoyYFUEW54BBk8//YNv0jLS3o+MjGy369IZS4vnV69e/ZIrwKAgr+BVjSYLYOAtQDK4oFKp3hfBoB+P3n766sfKjs3Yf3DfL/PzC5bV1tYy165dI8ZELP1TNQOqBNysx4wZwzzzzA+/zlia8YuZM9snjnUWGEAyyHFmX5ysOjkpvyTvVU2WZqVQMDD7GYhZmJ3ZEWJdHk+B2sraadt3bvv1kby8pd9//z1z5coV4mCEmKX8RMWQGEaNGgU14dsn0lLenxUbq+tSTaAblRxwOjq/atWqny5cuHCPM6kGMMgrznstG2BQUe4lQDK4aPYzEAOiOrMjxLo8ngLHjh2b8dWWrb/JLyhIq6+vJ2CArQKINUJcl1mWOE9BTYBksDxz+bcZKU+8Pyt2ln0wgNPR+i/XvSvQA9ElYPB9dfXkvKKi1zRZ2c+JYODx/Cg2sBcpUFNRMWvb9h2/KSgsTEHGZ/hI0I19dIkTKw3Y2AebQWZm5v60jPQP7NoMIBl4Chjka4t/lpWtQQIXhRDJQKVS/TIpKUkMbtKLjCk+2v0UqKysjNyxfftvtIXaJWfOnCFgQOMx0GVFmqi4z4JBXnHx65oszU/Ky8vlAsDgknk1QQQD9/Oj+MRepEB1WXX0tu1bfqctKlIBDLDECI9EkoxFKiUOSCSiMk8ySE9Z8ku7NgMsp+zYseNlT1ATjhQVr8nWaH7sABhAMvhnL/aL+GiRAm6nQFVVVdRXW7b9TlukVSPhESQDCgY0Khi1GcDpKHP58m9S0tN+ZdfPoBtg0Lhq1aoXnW1ArKmpmVJUWLhGo8kGGMiESAZqtfpXarX6H27vDfGBIgV6kQI1FTWztu7Y8nttoTaJLxmQEOtmyYDuTSAGxGXLD6Q9kW7f6cgCBqYYiCS4CY6utjC7CgyKC7RvZGVrfiQUDJRK5YfJycmf9WK/iI8WKeB2CsBmsH3rtj8UarUWNYHaDOBnQPOU0o1Ky5cvO5CWkfF+TExMSZdLi90BA1fEMzBJBkVvajRZz9oDA8RAjI6KuqRSKT9UiWDgdmYUH9i7FMDS4tatW/8NUZ7PnjbZDGgwIGsPxDFjg7Ga8G1qauoHjxwYwLkCkY5EMOhdhhSf3nsUqK6unr5t27Z/dzoYNDU1BfBCpQtSE3pTMuCDwWK16qOkpKS/9163iE8WKeB+CiBSE8BAq9UmO1Uy6CYYYG+CU92RhaoJIhi4n/nEJ3oWBSorK6dt374dksESEQzMaoIoGXgWk4qtcQ8FbIGBnzlhK7UZtFB3ZEdsBqJk4J4OFJ8iUsBZFOgGGBxIS0uzv7TYDTA4Z7YZ9LqaoFSqP1YvUX/qLCKL9YgU6AsUIGCwbfu/a7WFxB0ZqwmdSQZwOlqRmXkgJd0xMHi7oaFhsAA/AxEM+gLHiG18ZCnQL8BAiNMRNSBGRUVdVinVH/WWZIAgNAzDKK5cuSIfwbIcM3Kk3px0loSrMnNi+yD5wtjT1j3W55xVr70WWeJfIKM2LYxoPswZRsGMZ9AOPa6RcwyD9FeknEQiAT3IwXEcchIiaBDJ1C0ePaMAHwzO8fYm8D0QqTvy6L4qGfQVMDhWfiymruFE3JWma+MeNN8fyBlYqcLHq83Ly6utpbnZjyTeREQ8Wwcv9BUZNObwV5w57C6HWHgSMsiQegc/OXx3KIdr5kPCD9lrQaGH102D01xn++zXNkGFZt5BhC8a0A/nyHmWYQxGvcJoYOX4LZVJjabyHINzPj5eLXqDQW40GpEgkNQvl0sNw4cHnQ8ZF3wsNCJCO3z48Hs9Gw79+24RDMwZldpJBirlx+rk5P9zF2sg1v7169en6Ip1/1pUVJR+7tzZoBs3bvg2NzdLkGgDyEwSbXRxYEeZE4/OJIROpQuS2uvh0RkYWErQ6LzmMN0cCRbOkVqkCNNnViuRehxusEgcShKT0oS9qMjLy8sYEjL++pSp047GzY7bEhoaWhQeHt7gRDr0q6oIGGz96j+0RdpkIZJB5orMb1PT0n5pd6MSz4DY6zYDhyUDN4IBMk9VVlYmF+QVrCwvL4utqakZiC2iNBsujWVvDwyoTaa3uNcKDDo0g4boNkkTpmSg/ANp7mi8fpIq3OwLz08SSpOW0izDoBGi8IwaNcoQPjGiLiEh4ct58+b9PSQk5FZv0aEvP9dRMFiRmSls16KngAEiHeVri9+0t1GptySD2trayJ07d3588NsDyfX19fKLFy+SDLoIQonto3Q2tMdkNDOOvXK9dd0eGNBEHjRZCNpJ8wjQpKDYV49yNO8fzdeJ648NH8YsW7bsyA9/+MN3oqKiinrrPfvyc22BARIU820GrXpT2DOzzcBlYHB29erVrzjbA9Ec9uwNe1uYewsMioqK1F988cVf8nKPhCPqLKLPAgQACPxto/jd1cGPme+pDGkj7r8lGam1JEAlCCrx4DqNwwfJAL+xAxbx/ZEI1C/An0lPTz/99NNPfzRx4sSdEyZMuO2pdPDUdjkKBpkrMvenpqV96Iia8FZDQ8MQAUuL/RIMdDqd6vPPP//boQMHJyAnH03DZZ01197M72SbgcP8atqg3vnRGVhZUnspFJYkHXhXmheQn4QU9gK+ekHTnF+/fp2ReymY5OTk808++eRvpk2bljNx4sQLDr9EP7/Bo8Bg1apVLzs7uImnSwa1tbWz169f/5cj3+VGIXEFjVUPkRgzHw4MdPp3Z/zqKZIBQAFrgJ19Y4GCZP8hixkSRgb7AS/3H7WN8PP+UdUAab0gIeEDFQE0ATiAZoEDBzBLly49ATUhISFhj7jc6DiyOQIGcDpa5krJoD+CwalTp8bl5+evLiwsfFan0wUjKi0OftZegIElJ5/jfezWO8hiIM3d5cA3P/04Bj8GPH1najeB+kTTmkOPxXWAB8qOGjXqfnp6+tZly5b9YeLEiSfc+tKPyMNqamqmbsre+F+6Up3qVH09c+PGDcZLriC5E6gaB+nszj1zqPQVmfsyUlM/mmkvuAnPgChYTfAEMEA8A3e7I9fV1U2pqanJyMvLe66kpCQc8eqxooAOwADAYW81oa/zI3+pka4mUIAAGFKJgAblpEZEZAOeOnXqxalTp+ZHR0dvValUOyUSSVtfp0dvtF8oGJgMiGMQ3OTr9LTUD/siGCDsWafRkflbmN0NBuj4urq6CVVVVenV1dXKS5cujb1z544fsurJ5XKk15NhrZ3HIFiUN6XVdK9+YNvhqWvOtelzQHMCmt+B/JTJZEgjCI9CrCQgCakEHwChn58fMo8SXwSkDTQajXC80AcHB5+bOnVqYVRU1P4xY8YcHzp06J3eGEiPwjNFMLByOoJk0FtbmCFN3bhxYzTLsv6tra2+JNkmx8n1er0PEnRaMxwGihAmlMlkQtyMbZURVL+QNvDKdNYWJCGFYxFJEAoHQ4PBoCBJQqVSZAombsc4J5FIDH5+fnekUmmzv7//g4EDB94cNGjQHb5rs4NtEoszDNMvwEBIqHTe0uJFpVr1sRjpSBwf/Y0CjoLBihWZ+9NSU3/VZ9QEc67FN+zlTeCDgVql/EgMiNrfhoL4vgCDjRs2/nepTqfsyoDIsxl8k56W+ktBYLBr166X1325Fu7IgvwMXGFAFMFAZHKRAsIogKXFrVu2/pcjYJCRnvarGdHRxfwndNAtof+KYCCsE8RSIgU8gQKOgsGKFZnfpqel/dIlYPD888+/OH/+/H3OJEw3JIMLKpX6I3WymFHJmf0g1uX5FAAYbNu89b91pbrFQtQEEQw8v0/FFooU6BYFECp966YtcDoSBAaZmZkHMtLTPhAlg26RW7xJpIDnUkAEg47BTUQ1wXP5VWyZCyngKBisWJF5MD0t7f2+KBnAA1HRWRZm3tKiCAYuZDixas+lANKrbdm4+U9C1YT+AAYXVSr1h6IB0XOZVmyZayjgKBhkZmYeykhP+8WjLBmIYOAaXhNr9XAKiGDQ0WZwUfRA9HCuFZvnEgo4CgYrMpcfTk9Pf88lksHKlStfio+P3+vMN+X5GQi1GXgEGGCDkjlPguTMmTN+crm81WAwkE0+48ePt+QawO/6+npJWFiYZQMQflMa8s93Qlchm5iEdomjdaE82mp9X0/yQ3S2uUropiuh5TrLOWHz/itXrnjp9XrWz89P8eDBA/2YMWNazTFgECreqaGthXaWdTlHwSAzM/O7jPS0dx9ZMMCuRZVK+WFv7E1AyPQHDx6Munfv3pB79+4N1ev1/kajEXkEJNjCjBDi/K2/1oMI12kH88vRv3nXSTl63qpOBFbpalB3es26nu4yJb3PzvbsdoOObvHm5WNot+UbdVqXwTn+M6y2iXe7+aAftmDzKzAYDF70t5eXV4tCodC3tbXJFQpF25AhQy4GBARc8/HxaQoKCrrf7Qf38MZjx47N2Lxh038KNSD2STDIL8lbo8nS/FjIakJvbWFGgBOdTpdaWVmpbGpqGv3gwQO/trY2L7lcLvHx8eFaW1spc9maeTqbSfkDl/7tjCxKttjOUanAVh1CZ2VH77VXb0+lCYKt/EbRYC302xzTEtjDId8Ddmq3tLQgXoVx4MCBd0eOHHl8xowZh+bOnftVUFBQUw/HdbdudxgMVmTmZqSlvdNnJIMTJ05MLMjPf0MoGLg7vRqCdVRXV0eWl5f/4PDhw5l5eXnjkPCShhZHrgBEO0L8P/Ns3i4oqHtjm3SLx/rlTdZggHiNNMKzJb15S4slAO6IESOYhISEmvT09D/NmTPnq8GDB7s990P/AYP1mh+VV5R7CfAzcGuuxTNnzoR8++23Py/Iz3+6sqJyRF1dHQlxhsi/YCB+HgGaP4CCgggEnoMzQpLI8JPDIAI0fuMbcQXR1zNnzmQWLlx4ZPbs2f+IjY3dNWTIELeGe+8OGKSkp79rnafCKbsWXWFAtEgGjoCBGzMqlZWVxX/55Zd/+Xb/N9MQ8hsSAIJ9IjoyDQhKGcc6C5HnDAWxJfbAgIaEp8Fd8Rv9jAPxAR48eMAEBQUx4eHh9+bPn78rJSXl36dNm1bpTso6DAaZmUdSMtI7JK3xbDDIK1ijycr6sWDJwI1gUFFRkfDXv/71H4cPHgq9f/cumSn8/f2JakDTkNEUY2aDlzv5Q3yWAApgaccaDKyBGzM/zX0ByQ/XAQb4RhKYO3fuMEOGDGFCQkKgLhx88skn35s1a5ZOwOOdVqSmpmbmpuyNf3TAgPiog0H0FZVq8UfuSrx67NixmE8//fSL/O9ypyI0NURGMAk/tRoVI6laYK0eiBKD08ZDtyoieSBI/geyQmOx7VB1Dt+Q8mjIexp2HBGfARAAA0iEkAwiIiJaExMTd6Snp/928uTJ1d1qUDdvchgMVmTmpaSnv21XTbh8+bJ/Tk7OK45EOnKZmuCQZOBeMDh9+vSkr7/++h1tXv7ygoKCgDNnzzBSiZQAAoyHNIFIX8mb0E0+7PXbegKo1OmjK1WB2ntoZjGAAKQFSAmQCnBER0cjK1TR/Pnz/zZt2rQ9Y8aMue5OwngUGLgiuAmxGTgEBlFuNSA2Njb6njp1aomuWPeTkiLt3GPHjsHHgDAJGIfmWLRnLOwJM7uT4Tz1Wfbo21W7AQZsB7+p9nfQrNrUKAwpAX1GDcSDBg0yxMbG1iUnJ38WGRm5Y/z48afdTatu2AzyUzLS33KJZNAfwQAdfvr0aZ/W1taImurqJ6sqqzPOXzg/oampaSDUA6gLNI2Yu5mjPz2vJ2AAOhm5dk6hHUgHvzHiMcZxNDsR9AkuMDDw/mOPPdY0duxY3eTJkw9Onjx5b2ho6JXeoL0IBh33JlxWqlUf9kao9AsXLgSfPXU2+sLFC5OvXW0Kb2lrHSCTyQ0KuUzPsZwMbMSYk6cQjiIWRSqcSgg3ogTDIckZyWdIUo4Q3ZUxnaMHKcc/zPc8LPBQ6AX/kvrMZjIJJ8H/7Z5vKSMxlzXfY362qSxtu/khnLmsNeNLOF7bJOZ3YczvYd1uG6MGaRw7fVer9wSNUJYlGSBNdLLQhpOQjC3kHzP9+HRr9xxzu+BUZHpVs/HA3BDkvQAgGAwGOI8RV1KWZdmBAwdeCwoKahg3blxRQEBAY3BwsMmhpBcOh8FgRWZBSnr6m4+sZNBbHoj8vkcw2fv37wfI5XIZ3FYNBoPR39+/S/91vluts92CbfGlmzM5mbGk/QCzbpej780vz7Ks3cxP/Od1Vt4WrVC2tbXVy9fXVy+VSkE6gjHNzc2KgIAA45AhQ+57wv6E7oBB6pKMtyLjIrXtwNeaCN0xIHqCmtCbexN6YTIQHylSwEIBTwKDM88///xLzo6O7KgBUQQDcXT0Vwo4DAaZmYWpKRlvCpcM1q59q6G+YShdUqHWVGTRhYEMy2eBgYFMVEy0CAb9lQvF9/YICngUGKxateqnCxcu3O9Myhw/fjyisKDgTY1wd2Qx0pEzO0Csq89QQAQDG5GOxBiIfYZ/xYY6kQIOg8GKTG3qkow3XKImuFQyEBjPICoqyiMiHTmxj8WqRAoIooAIBmIMREGMIhZ69CkAMNi0cdOfSnW6RCHp1TJFyeDRZwrxDfsnBRwGg8zMotSUjDUuURNWrlz5Qnx8/DfO7AqLAdEBNUGpVn3cGx6IznxvsS6RAo5SABuVNm7Y+J+CJQMHweDldWvXvi10adFVYFCQX/BWtkYjODqyCAaOspFY/lGgQHfAIC015Y1ZsbGF/PfvENzE7IHoCBicXrly5U9dIRk4Agae4I78KDCW+A59jwLmLcxIr5Yg0GZQnJaSssYuGCDs9969e19xQDLwGDBQKtUfq5eoP+173Sm2WKRA9ykggoHVagIkg94CA47jpCdPngy/fv162K1bt4ZzHKcwpUxg5TKZzIitbtZdzXG8HAcy09XONuwI3chjJ28CvwmCw6MLfbY9VhZajyMbqbqzycu6fn67JCxLJGWW40h4e46VSKQKqQF9aDAYFEajET0lw7efn9/N4cOHN4wdO/bk0KFDTVFOeukQwcAWGKiUn7gr7Bntd8Q0aGpqmltbW5t67ty52Tdu3AjCTjeFXMHJJFLGYCRbXy0H/wdrykpE+K4TPnI0V4K9PAOdsatgcHAzv3f3few101Kv9CHtTUBgdSeAgEQ7kpC8LRK9Xi9ta2uTDhgw4M7o0aMrJ06cuC84OLhi5syZ5fYe6qrrNTU1szZlb0QSlUdXTSDuyAJXE4hk4GYwaGhoCD927FjKkSNHfqTT6Sbevn3bD5FxsH9DykhIgBNExukMDGwxn6sYRqzXNgXMYSPIRRLjEEELpFJL2AnSRyzLSOUysh8Hf7e0tJDyvr6+3NChQ69GR0cXKZXKf06ZMuXwsGHD7rqb1iIY9LJk0NjYOKSwsPDVwiLtj3Nzc8dXlleQcFjYvEWSbehNkXRp+LN24oG7uUV8nmAKWEKjS4goQMLY4QAYIJ4lgAIA39LWSsKkc0aWWbBgQevSpUv3xcXFfTZixIiD4eHhyMfotqP/gIHAjUrulgwQHVmj0fztwKGDUZcvX2bu3LpNBj4Nlc4ajJZ4iISZ3MYa4oMcoQANa299D1UXMPBJcCipxBIynUh8HGsKiMpyyJnAxMTEXJs9e/aWefPm/ffkyZO/d6QNPS0rgkEvSwalpaXqv/3tb5/u2LVzPERHHy9vkkCFiphQE3Cexty3BoP2wcx6yg7i/d2lgDmXYrv8CZDojDybLw2nzs+bADBAqHR9axszePBgJiwsjJk3b572ySefXDNjxoyi7ranO/cBDDZu2PhHwU5HKzL73tKiI1uY3S0ZlJWVLf7rX//698OHD4fSvAlQEQICAkyqAcsRIKA2A1uSgQgI3WF9595jiURJ7QUkSCpnyaNAU6lJZFLLOdgOoCYgt+bd23eYUaNGMdOnT+cSEhL2L1269N2JEye6NaOSJ4HBGZfuWvRQNQHLOfv27fvk4MGDSxrq6uUXL14k0ZABBmAWaniikoEtFnaG6mAPUOyFYheSXqzL4Wc7BKHgEdvT5/fk/UnyFHN8WNAJYdMh0UEloLYDvAhNokKlCAAEAvxAMrh//z5RE+bNm3d28eLFn8fGxn4RFhbWKJgATihYWVkZuXXL1v/wBMnAc8DAjU5HcM6qra3NqDl27P8d+PZAolar9QFjQCoA8wjNs9hTQLA3GOzxmr3BaO/+vvx8vLutFGtU1aMGRJongdKCJmKF2jBgwABm0aJFF5YuXfp5VFTUurCwsHp7NHP2dYfBIDOzJC015XVXeCC6DAwcdUd2t9MREqlcarwUf/i7Qz8p1BbG3Lx5c7DBYPBrbW2Vm1cSsHbd5Vp5T8GgCx+FznjOmWv37vBP6G57BfloWIGBJZK8aaVRwun1etbia2BWHwASXl5eBj8/v+ZRo0bBcLgvMTFx7aRJk6qcPdCF1OdRYLB69eoXFyxY8LWQhgstQ3Yt5ue/rdFkP1teXq4QkJL9okqp/sTd7sgcx3nV1dVNOH/+/JRbN26MvXvv3iijkYXTkYGRMBKD3uDLMZwUuQts5S0AGCDAP6ULzQeA5Ak4JzHH/efM8f1pWb5XI82x8LAOk+xrfV4o7fnlSDaCTg5+/RzD86gU+CAEHhdSlLNqg4QxeQoKeV+0q8NzLDkXTJKBOWcCgIBkWzCrBgSnvby8WiQSSRv+ZlmWxEuHN6JCobg/aNCgi6NHj64bPHhwQ2ho6Fkh7+KKMiIY2Ahu0tu7Fq9fvz7g1uVbg8AwUj9pm0wmkxruGRQSSWs75m2TSi2/HXG/7cql16uz/AHe3oIGXGdMCo+7rhhYoVB0nZLIDvfbc8GWtkl7JDyxXmy79lk/z5r++A0PQ+RJQNOlUqnenEjF0mfNzc3ecrncEBgYeDMoKOi+Kwa4I3W6GgxeXedAdGRXSQbavIJ3srI1kAzkQiQDtUr5kSo5+TNHCCmWFSnQ1yng8GoCbAZpqWtmxcQUtJOwrAlh3rXoEWBQmF/4rkaT9f9EMOjr7Cq235UUMDsd/YeuVLdY0BbmfgAGF9Qq5ceiZOBKthPr9kQK9A8wKCh4T5OlgWQgE6AmiGDgiZwqtsnlFBDBoKMBUQQDl7Od+ABPpAAMiNs2b/33R1tNECUDT+Q9sU0eRgGHwQB7E1JT3+hbBkQRDDyM7cTmeCIFRDAQk6h4Il+KbeoFCrgeDL5c+3ZDQ8MQIVmYXeVnUOiYZHCxt52OeoEPxEeKFGBEMPBAD0SRL0UK9AYFHPZAdNhm0Aclg97Ym9AbnS8+U6QAnwIeBQauyqjkqJoggoE4SPojBTwJDFyWRMURd+TezJsABkTuBMTUv3r1qndbW5u3wWDw4jjO28fH5z7dHMN2tpkIW+VIoL2Oh9B8Az0ZBJ21q7t10k0+3b3fFfd19x3xLj4+PnraJvy+c+eOn/n3rZCQEFOo5F48RDDwkCQqHMfJdDrdomPHjs2+evXq2Nu3bw8xGAz+MplMIpfLjazeiD2yD3cO8kIPYVsy4mzSbcoEVJiH23ot25dxjm5zRl3W4Yto/ebtt13yJb8tZhQTxMfW91nf1NWzOwE6UoWt+/jlra9LHoZjQTwi2gyS2cB88M9bX6fXaHnr3BWsOZEKtjObtzYbpVIpEuKgKpler5ezLOsbEBBwZ9iwYWfGjh17fMyYMTWRkZFaQXR0QaGqqqqorZu2YG+CS/ImvLpOuM3g9HPPPffCokWLvnXme5riGQjfqNQbksHVq1cDT506tTA3N/en+fn5cy5evDj4wYMHUkTAQQg0hD9DwEzx8FwKkNBnXYRVQFQjRK6i0ato1CPEuxw0aJA+LCzs4syZM3MWLlz42bRp09wa+5BS9ZEHg9ra2vCi/MJ3hW5hdjcYYHdndXV1plarfaW4uDi6qqqKJNcAAND4+liWRcj0rg57MQo9dxg9Gi0TEvaN9hGNi0j61Zwsx8fHh4mNjW1KTk5eHxsbu743AEEEg15WE2pqaqZu3779T4cOHVJ///33DAKiIp4+ZgyaO4EE2bQDBl1J0I/GcPPst0AQVBz8fuD/DYmASgMAeRr/EAlUbt68SQKjTpo0CYlUEBD1/xYuXPgPhEJz51v3CzDQFhS8o9Fk/0hIPAN3SwaVlZULPv3003/m5uaG01DpyJuAmQIHVAUwipdc4U6+EJ/lKAUeBp2yeSeAAOnyAAI0OxbAAufu3r1LQGT48OFMSEiIfsGCBfsyMjJ+5W7poD+BgaAYiO4Gg7KysvhPP/3084MHD4ZilqB2AoiQ9EPsY8auo4KJaoKjo9fJ5W2AgXWfEFD38iIf9DOVFlpbWxl8hg0bxgQHB7Px8fEHn3766benTp1a4eRWdlmdCAY21ITFatVHSZK9gtAAACAASURBVElJf3dHRxw7dmzG5s2b/+vw4cMJUBOuX79OpAIwDIyH+ICJFDK5O5rT759hPYDpb+pO3xmB+AZE3IOZnh8qnUoGuJ+CPPq2ubmZuXbtGjk3btw4qAkXEhMTv5w3b94X4eHhDe7skH4BBoUFhW9nazRQEwRFR3bn3oTTp08POnr06LO5ubnP63S6qQAEmisB4iQ+JJW3HclAtBn0bNjwQcCWlGVX8jJLBvxy/AQq6FNcg5oAEMDfkA6oGoh+jomJuZ6amrotOjp6Y1xcXD4yt/fsrRy7WwQDD9i1eOnSpWH19fXzDx48+HJ+fn5MU1PTAKwoUFAQsprQVcYlx1iif5bmpz3jU8AuCHRCrs7uA0DQVGuwF0ACHDhwIBccHHw5Pj5+n1qtRsLV6t7ohUceDGpqasK0hdp3HJEMeiM6MpYYT5w4saSiomLetWvXxjc3NyORio9EIlEQr0SWkSGDARIg2GIUKjlAiGBIbgQirLJwLSK/8cF/JH8C8cAh5m+aR8FWnRLcZcquIoGd3FTGvIhG22EuQ55gPkgreQdu7pq5hSzMoQbheZfwko4MKIlUwpJsJ6YEJx3aa+XZSa9bvul16ulpBgPURxLgSKVSAz7wYJRKpRyckoxGo9zHx+fBsGHDzo4bN65y0qRJ+dHR0fmOtNuZZUUwsCEZqFTqD9XJ6n84k9BC64LawDCMj9FoVMhkMpnBYJCBaTrkFWizN8DMT/RqPyi645bcZU4Goe2wIoBEou9uhqMuSclxCodAgFbWxnTt1EXzXlo93PIsmhfCup9wntJPoVA0wwURyRTM/UCWjAICAm4rFIqWwYMH3zF7KwplF6eW65Y7ckrKGqHp1XrdA7EbksEFlUr9UW+BgVN7V6xMpIADFOg/YJCleba8otxLSHRkEQwc4CCx6CNDAREMbERHFsHgkeFv8UUcoIBHgcHKlSt/Gh8f/40D7bdb1KImiJKBXVqJBfo3BboV9sxVNgMRDPo3M4pv37sUcBgMkF4tNeV1lxgQRTDoXWYQn96/KSCCgZhRqX+PAPHtLRQQwcADPBBFfhQp4AkU6BdgUKTVvq1Zr/mRwKVFMW+CJ3Cm2Aa3U8BxMFiuS0tN/XmfshmIYOB2vhIf2Acp4PDSYqZAMLh8+bJ/Tk7OK47EQHSVAdFRMBBDpfdBThab3GMK9B8wgJ9Bebm3PQ9Edwc36XEPihWIFHASBTwKDFwRHRlOR0WFRW9pNFmIZ9AnwABh0xsbG0e0trb6GgwGI8dxCux4s+5zuunIm/PmGB+yT9G0E7GT/bPd2aQklM+63MxkoxJHywtpR3ffz1ZbHGlfa2ur3U1XCpaVG2Qy0pfmuttkMpney8vr/rhx424KeT9Xl3nkwaCuunrCkaKStx0CA5XyE3Vy8v+5mvjW9V++fHn4pUuXwq5evTruxo0bY1pbWwMlHCdhWUYik0nYh4PdtJVXKmU4lmVYbLxlTNtisQ2X7qQj3/xdcNaDpbuDh7ZbyCCysR243cCh12UCorN0DnISjkHqGd62ZdNuZLtbo01btDlOgucjBY3p3VirNprO0/dFKgRSiiXkNdfRMXkN6RfzgbqlUoYxGjm5KZWCxAgw8PcLvDpo6KBLo0aNOjFo0KDG4cOH33M339Hn9QswyNMWv5WVrfmxYMnAzWAA+8r58+dj8/Pzny4rK1t469YtJFBBRiUFYgogGAad9MGTlL94TENjE7QbEPzBYfW3K/jN7uzYyUNNA63rEI+mW0mchs4Pu0O/460PE6Y8jMdg6z06nDPFeOD3QPumWYOy0Wgk4RJoODQS8ZplOW9v7zZ/f//7w4NGnI+Njc1JSEhYN2bMmPOu6CB7dXoUGLjCgAjJwAwGUBN87NkMoqKiLqvVqk9USUl/s0c8Z1xH6rSCgoKk0tLSlYcOHUrUarUBCIyKaMhmhiHx8awP/hkh48gZbXVlHR3fUPjTnPH+PXk+kRKsmmutqSH4KQ5+2DMaEBXnBw8dwixatOjM0qVL/zxz5syNISEhl4VTwDkl+wUYHCkqelOjyYZk4HFgcOrUqYl79uz5KDc3d2lDQ4NPY2MjCZ/t4+VN4h9iJqHx8/hdbs28zhgQzmGp7tXi7MHoaCt6+nyLhmFSO8jj+YCAuIcY/DQYqjmiEulrBEWVKeTM5MmTmTlz5tTMnz//07i4uA3uzpvgOBgI3JvgKUuLkAxyi4rfyNZofuKJYFBdXT33s88++8f+/fsnI34+mAMgQMEAzENnFTBYT5nW0UEilhdGAXuSAQ2PTkECYACAQH/fuXOHud/8gBk5ciQTHh7eGh8fvxd5E6ZMmXJM2NOdU+qRB4Pvq74PPVJ85E1PBYPa2trZf/zjH7OPHDkScuvWLTLwAwICCBhQNQGSAU28IYKBcxjfFbV0JZ2hD9G3kPRoKHWExMd5ZFS6e/8eAYOQkBB20aJFB5YvX/6muwOjehQYrF69+vkFCxYccGZHAQzySo68ockikoGvp9kMIBls2rTpz19//XX0pUuXmNu3b5OB7+/r1y6KLnTNriQD4aFCnUldsS4y0/OSrtLw6NaLIy1tbWTgUzUB1yEtGDmWSAZIohIcHIxw6dcSExM1CxYs+L+JEyeecCeFHXdHdqGa4ClgoFIpP3bX0mJdXd2E3Nzcl/Py8lZotdrRyJsARhkYOIDwARKo8MOgdyYZiGDgzmHT8VnWKxlUAqAlW/V6huVYRiaVMUifR3MnNLe2ECDAERsb27p06dLDCQkJ/zN79uyDEonEram3RTDouGvxsjvBAGvcZWVlcTU1NUsOHjy4vKioaEJLS4s31ASawtvWEryoLvTu4Ld+uvXgt75uMKsJkAwoGAAE0MeIqDxg0MA7c+fOPZ6cnPz3KVOm7OwNRySHwWBFZnGakEhH3TEgukIyOHHiREhBXsEbGk3Wc0LUhN5yR7558+agioqKRdXV1QmNjY2xN6/fGNna2upNYu5DpPT2bpeTvatFfail7ZiR5EuwOtP1WOq8+k7yNnR3aCK5Q3fv5d/X4Z07q7QjLRx7vJ3358yGA4kUjgjwEjG9HosXlUrgGCZljawck4DRaGT9/Pzujxg+/FRI2ISi8ePHl44fPz6vN4AAbRTBoJdTsvM5EW7I9fX14xsbGyc2NTWNa2tr85NL5JxUxmD2IKm2ONbK003S3lvOIc7mpA9Boot6HHHNtdlGhxrlnMIS6UPvPysadyuvgr1WIRECv4xBIoFXI8txDxU4uZdczxoM3s3Nrb5Go1EKr1J/v8Bbjz32WOP4CeOrRo8efVEiEeR+Za853bougkEvJ17tdALjOHl9fb0sLCwMEgGf0Tr7WwgD8GdhlwwKIY3w1DLOTGBiwxUayVSwNwF9AGswvtEHcCH3CDeRRx4Mjh8/Pl6bV/BGlkbzXHlFuZ+A1QQxuImnjlaxXS6lQHfAIHVJxuuRcZHadiqbdSs9xWbQHTDojVyLLu1lsXKRAgIo4DAYZGYWpaZkrLELBkgkunfvXofSq7nCgNgdMOjNXIsC+kwsIlLAJRRwNRgg0tE7DQ0NQ+hmG6yv4m+4YWINHY4XgYGBTFRM9GlXgUFhfv4aTVb2SoFqwgWlUvVh0pKkf7qE4mKlIgU8lAKPPBjU1taO0xYUvCGCgYdyoNgsj6GAw2CwIlObkp6+JioqqqhLm4FZTeh1ycAEBto1mqysVYIlA7XqV0lJSZ97TC+JDREp4AYKPPJgUFNTM7aosAhORyvLy8v9BawmnFerlL9SJSd/4Qb6i48QKeAxFOgXYFCs1a7JytKsEsHAY/hObIgHUsBhMMjMLEzJSH/D6WpCZHTUqeeff/4FZ+9ahGTgKBiolOpfqpeov/TA/hKbJFLAZRR45MGguro6uKSoaI1Gk71aqGQggoHL+E2s2IMp0B0wyEhPWzMjOrpYmAFx7dq3G+obhgpZWnRFqPTugIFSrfogKSlprQf3m9g0kQJOp4AIBh23MJ/3BDDgOA6+7B7hs+50rhMr9EgKOAwGKzILMtLS3ugzkkFdZeWY3GLdmuxszfNC1YTeAoPr168PqKurm9LU1BR+/fr1IIPBoJDL5XqZTMayBju7E6VdhxF3Ivc5ZctxD9vjSZus2tFDKjXtBMWuRBIbneS9YBHu3iCXy0kiHIPB4KXX6xUIaenv7393+PDh58eNG1ceFhZ2BpuZekibbt/uMWAAAyJCpS9atOjbbr+NjRv7ChicPn06qLa2NrmioiLj/Pnz069fvz64paVFASDw8vJiZdgg38VhFWnHmbsTXTX4nTWgbdXT0zZ31Tbrus0JVbD5kMQ3pMlrAAQk3iE+AAmpVEokPb1eL21paZGj/JAhQ+4/9thjl8PCwr6LiIjIDQ0N3RcSEtLizDEgtC6HwSAzMz8jPe1Np0sGbgADGBADhPgZuFsyKCsri66qqnoqPz9/RWlp6QRESaYxD2nIM6lzYoAI5QuxnIMUoGDcSWY7EtfSYDCQkHY0KQ4/nN2gQYPa5s+fX5aSkvLnGTNm7Bk2bNhdB5vQ4+KPPBicPHlydF5u3hvZ2RqPBIPGxsbRX3/99c8OHTr04+rq6mH19fVkJvH29m6XM0Ehk/e4s8UKXEcBiUzaLk8CfRINWYd9ODQ8Ovbn0HwYOH///n1SfM6cOYbk5OTv5s+f/7eEhITdEomEBLRx1+EwGKzIzMtIS3urz0gGAIP8vLw1mixiMxAiGVxQqlXvu2s1obq6Ovrzzz//LDc3dyai5CKhBg6zaElmFMwkbS2moJmdHWJMRHcNmY7PIbK/9KH2YC0d0N8AABryHrEPqYQAMLhx4wYTFhbGPP7447cWLFiwNSUl5d/CwsLq3flWDoNBZuaRjPS0t0UwcFIvlZaWzv/zn/+8/rvvvhuP5VcwCBgFIiUYB7s6ycF2rWKLYOCkDulGNQADkvVKQpKzWmqgmbAABiQsulXeBEh/6GcAAb6HDh1KcifEx8fnP/PMM69OnTq1ohvN6fYtIhh0XFq8oFKqP3CXB2JlZWXcX/7yl38eOHBgKiQDMAyi54JRAA5gJBJB146aIIJBt8dAj28EGBDjoZVp0Va+RZoYB99IogIQQPIcREoeMmQIM2XKlNakpKQ9KSkpv/Z4MFiRmZuRlvaOSyQDV7gjEzXhSP7rGk3WC0LVBHeCQV1d3Zi9e/e+e/DgwR+cOHFiKHItgrEACFSkFCIZyDpmBO8xk4sVCKMAkQwY06oBPaiEQJOqUGkP16lxmAI9YnvgmDZtGrNgwYKKBQsWfDZ16lTNhAkTbgtrgXNKmTMq/VupTqc8VV9PJBYkAEaGL76NAwbu0cFjmMzMzO8y0tPefZTB4KJKqX7fXZIBurG8vDzm6NGjz+zfv/+Zw4cPByHdFsRKmmcR4qa9pUXnsINYS7cpIDWlTeMf/OxJmPlJP8pkjJ+fHylGJUEYFJFNKTk5uRZZmGfMmLEjKCioqdtt6eaN3QGD9LTUd2bGxJTwH9lhXdcSz0CgO7KrNiqdOHFiVEFewRoHJAO3gwEIWVVV9XheXt6/FhYWLm5qahpiMBgQTlsBpxX4rvAyJtlc5+5m//fGbc7yL+C3vad1OnK/bR8GKXEw4ksG9IcEPgYGg4FEQzZLffhm7927h/JtgwYNuhcaGnplwYIFOxYuXLhhxIgRV3qjYxwFgxWZyw+npaW926fAoPBI/utZ2RqoCYEC/Ax6BQzQ+efPnx968+bN0Tdv3hx569atkc3NzQMwk8BzDV5sKCNB3gRzjgMCE+Y8Cqz5nIAcB5055NgcENSJxmrGc2TwtONrW/UJZfyu7qWef0LrslfO1rP4tKX9Qevhu4/TtqAMzmOtQSqVIkw6kqjI0GsymUzPsiySqNxG3oSAgIA7AQEBF4KDg2/Ya5urrotg0NGAeFGtUn7Q28FNTp8+7QO3VS8vL5lUKpX4+fkRV1ahR1egcPv27Z566AlthtPLDRw4sNtAZN0Ye8DEsnaWcHgVoo9oeVqvTCaT3rlzR6pQKEjWXL1eb6TlDAYDGxgYaBwxYkSrRCJxqG+dTlRzhebVhD/oSnUqgTaDQ+lpqe/1GckABsSC3LyfOyIZeAIYuKrDxXpFCnRGgX4BBvlHjvxMo8n+qVA1QQQDccD0Rwp4FBggVPrChQsPOrMjTEuLwsEAiVdVKuX7va0mOJMGYl0iBYRQoKamZtbGDRv/UKrTqYWoCStWZB5MS039hVA14dV1a9e+JSS4CVYTRDAQ0mViGZECrqFAvwCDvNy817KzNS8KURMgGSw2RToSQ6W7hufEWj2UAq4Hgy/Xvi0ko5IrJQMRDDyU+8RmeRQFRDCwnZJdlAw8ik3FxriDAgCDTdkbf68r1SUJtRmkpqS8Nys2VsdvX2ceiIITr4qSgTu6W3yGSIHOKVBTUzNzU/ZG+BmIYBAWEcGINgNxuPRXCrgUDPbs2fPa+rXr3hJtBv2VvcT37ksUABhs3LARuxYFLy0KVhMcBQNXbWF21IAo+hn0JRYW2+osCohgYMOAKIKBs9hLrKcvUcCsJvy70L0JcDrqq5LBS0KCm8BmoFSqf+HOeAZ9iWHEtj66FDh27NiMTRs3/dGB4CaH0lJT3hW0muBhaoIIBo8uH4tv5gQKiGBgYwuzuyMdOaEfxSpECvSYAgCDzRs2/aeuVLdYkJ9B5vLDqamp7wiSDPbu3esRfgYFeXmvZmVpXhaiJkRFRV1UqlW/cFeo9B73oFiBSAEnUcAsGfypVKdLFMEgIoIRwcBJnCVW0+coYDYg/klXqksQAgYIiJqWmvJ2n5EMEAOxMD//ta4kAwSm9A8MYKjTkWhA7HN8LDbYCRQgYLBh43/rdLp4QWCwIjM3LSXlLZeAwapVq1bHx8cfcsJ7Wao4VV094rti3c+ysta/aq0mIIAlMhUBDPwC/JmJEycykZGRF1Vq1Xuq5OR1zmyHWJdIAU+nAMBg68ZNBAzq6upIqHSE60eodByI7ox0cAiVjmjOmZmZR9JSU950CRisXLly1aJFiw47k2g1NTVB2gLt69nZGrKa4K1QMIGBgSRkNV5O39pGwACSQUREBMDgkjpJ/Z4yKWmtM9sh1iVSwNMpADDYsmHTn3W6koV8MMB4sc6bADBYnrk8Lz019U3hwU0c2MLsCskAakJebu7PN27cBDDwBxgA6SgYUMkgYECgCAaezq1i+1xKgZqKmllbtm76H52uZD4FA+TvwHihOTyQ8AWSwZgxYwAGBempqWv6DBiYJIOC1zdu3PTy0aNH/RUyGZEMIP5ATWhtbmFu377NBA4cQMAgKirqklqp/sXiJeovXUp5sXKRAh5GAbNk8L86XclcgAFN5oPxQtPCQU1AvgcCBsuXF6anpb7udDCIiok+DTXB2TaD+vr64Xm5uT/LytK8ptPpAuRSKTNw4ECS5w4HwAAvDTAw2wxEMPAwJhWb4x4KHK+qitq0eetfdLqS2fX19e3AAOnh8IFkQMEgc0WmNiMt7XWh6dUE+xm4CgyOHz8+tFirfW3duvWv63S6QOQkBBggxRVEH4ABEl/ybQZKlfJd0YDoHgYUn+I5FDhRXR29cdPm/9HpdHM6AwO+AXF5ZmbJ0oz01/ocGGRlaV4vLS0NhGQAHQhZjmEUoQZErCZYDIgq5TuLk5PXe043iS0RKeB6Chw7dixm80YYEHVzqJpAVxMwViAZAAxgcDevJpRmpD7xWmRcpJbfOpuRjsx7ExADcTBmYRxIMom/IW6gYhgooJNAMoAB0dmh0iEZFBUWrtm0afNrR48eJWoCpAJqQDTqDcQgwpcMVEr128ol6izXk198gkgBz6FAdXV19JZNm7G0OI8aEDFeMXkCFJA+HglkeWBQlpH6xCt2weDy5cv+u3fvfnX92nVCweDMqlWrVjkbDCorK8cUabVvbNu67YXKykpf5Fqk9gK8nKFNz9y/f58ZNGQwExISwsTExMAd+R2lWgQDz2FTsSXuoEB5efm8vXv2/FpbqE2AmtDU1GTJGo0xQ9Tq1lbm+vXrzKhRo5gVTz9d/lRG+ot21YTugMHq1atXL1iw4IAzX7y8vHx8UWHRW9u2bX2uoqLCB0uLkAyo2AM1AZLBwMGDmNDQUCY6OvrSYpXyvaQlS0Q/A2d2hFiXx1Og8mjl7D37cj7RarUqgMHVq1eJJE8laYABpHkY3EePHs2sWLGiIi0j/cWoqKiiLtUEgEFOTs5r60x+BoMEqAlnXAEGVVVVoQX5+W9u2bzlufLycm++0xHRgVpaLUuL4eHhkAwuJCYsfj8pTQQDj+desYFOpUB5efncPbv3fFRYWGABA6gH1NiOCRTSNNQELC2uWPF0RUpaijAw2LNnz8/WfvElYiAKAYOzzz333OpFixZ968w3rK6uDi4u0L6xcfOmF44ePeoDP4MBAwYQHQgeiFhNwMtRP4PZs2efSkhUvp2oStzmzHaIdYkU8HQKHD16dPbePXs+zs/LV3///fdEHYBNz9/fn6gIFAyoO/KKp1dUpKSmvhQZaceA2NTUFLB79+7XehsM4HSkKy5+PTt7w6ulpaW+MCBSMCDrpq0mJwofP19mwoQJzJw5cxqSlySviU9M3OXpnSe2T6SAMylQU1Mzdc+unN/lHsnNOHHiBNmbAFsBf28CDP/UgLh8+fJjKWmpP42JiSnoUk0AGOzcufNn679c91bDqYaBAtSEsytXrnw+Pj7+G2e+YF1d3TB4IGZlaX5WWlrqRz0QsZpAHCn0Bqa5uZkZPHQIEX1mzZp1Wq1Uv6dMSdrkzHaIdYkU8HQKlJWVzfnm668/LigoVGE1AZIBluAhGeAgknSrSa2GAXH58uXHU9PTXp49e3a7/UQdlhYBBrt27fr5ui/WvikQDM6tWrUKWZj3O5No2JtQkJ//xobsDS+WlZX50r0JVOThjKadWF4+3syIESOwfmqcMmXKwekzZ3wlUyiaWZaVcBwnNxqNMrRLIpHgtxTfEvM3x0okrIQlNCDnJRIJ7qO/cRp/cxxnoRPKmM9x9H1RI4rxz0ulUst1Dj6hpnos5/jXra85k46d1UXfwx3Pctb7ddZm2meuehf+cymPmM+Bpwjf8HmFX572uZlHCCn49OCdb8dnVrxFb+GkUqmRYRijVCo14INnNTY2zqioqFhx8uTJYZcuXSISANRpAAKdPDFWAAYjR45knnrqqZNpaWmvzp8/v51q3wEMrl69GgjJoLfB4Hh5+fhcbfGbmzZtXFleXu7j6+1N/BowniDyMCxHjCIAg6FDhxJjia+vLzN8+IirBtYIgpOBTfpJwkjI//iLwy9GAu8JlmEkHH7jAk7Qv03j3TzoTd8PDwoMBADIEDdfw92Wwc5wvL/NDGCpo/0102n+vbyHdcLgD5/TsUBX11w1XrqqtwOPdVGY3/au7nOkzk7x0MYFobR7+HwzzxCuoj1pv/8sY51wkJk5OcxJqE8qkTCsaQrijCx+M1JGyjBShpMyElYik3IyidTASCVGjIF79+4NuHTpkjc8cltaWsgHqwkABLprEWOGSgZPPfXUiaVLl746Z86cdiuANsFgx44dP1+/dt2bDQ0NAwSoCY1Iyb5gwYKvnclpxICoLf75unVrX6yurvbFyw0ZMoQx6vUEBCD64JyMjGKGGErImAId241Dcw8ROOC9LsuRcu3O2eKOh5O5M19PrMtDKED7nye0tWsZrltfo7/pQKNGOpynH/4505TxkNdonfQcC/4loIBBTyYpMksZOY6BGz79ZqRSBrYzXGdYljGwLGPkWMtmJMr//LGAcwACPAsSQ1BQEFlafOKJJ16xazOAZOAJYNBY0zjkYPG3a7Zt++pVrVY7AAQcNGgQwxoM5MUACGRlwfBwIwbOwZ4AoKAdwO84/sDvrPOteVRoOQ/hbbEZDlLAejKw7m8+GFgDB73WVR0YmBQg+E2j5yQy03U6kOk3H1QoP/MnPVwHSJBx4O1FDIZQC6inMNpEfXJQBu148OAB8TN45plnDqSmpq6ZPn16Nb9NnakJr6/7cu0bQiUDZFSaP3/+Pgf7ocviHMcptm3Z8sJf//dvHxeXFA+BCgAw4IxGogfhBXEOgx9/QyeiEgMfCPgoaW8WcGb7xbr6LgX4gGBrArF1js7ynUmanU1K/IHOBwS+NEG3IdPrdKBjysOsL1OYVAKMC1wDzwMU8MFveOqiHL6Dg4O5Z599dsszzzzz+tixYy/2CTBAI787+N2SL9d+/l95efkTMdgJEhuNxEqKlwMBcPClAUoQEBkffufYmwVssa89NaLvsrzY8s4o0BkY0IFLByPKgd/46gGtk1+G1sdXFfjl2g1InirLbwdfusBgJxKHuSxUBTop0mcQFdocFQz+BSgPu1pYWNjdFStW/G3ZsmW/HTp06J0uweD69esDtm/f/vPelgzQyOPHj4/fm7P3t3v37ll+4sQJL/hcw5kCS4kUOaE2oJNABLwwCICDggGVDETWFynQFdh3pQ5SUR8Djj87U7sVX+KkfEfL8e+h/EntCShDjOFmWxf/26JGmGd6OulRPicRjMx2CAP7UDXm2yrQFhgVoR4MHjyYmTp1Ktz2jyYlJf1BqVRutaZHBzUBYLBjx47X137xJdSEQCEGxJUrV/40Pj5+r7PZDfbUw4cPZxTk5b+el5cXV11d7YMXQ1wD+tIwtFh3AF9PswUGjtgORMnA2b3qmfUJBQMqDVDjId6GDvLOpAG+ZMCXIujA5gOMZZIzT3B0hkfd1CbGVxPIioPZcElVBEphnMcKAto3fvx4NjExsSo+Pv7/YmNjtwcFBTX1KTBAYxsbG32vXLkSpS3UvlSk1apra2uHXrhwgaAdXhKSAgUDvt7GN6B0xn78Du2qjGeyr9gqV1DAFihYSwZUFwffwSsWs7+1eE6lU5Qlxj5zxCEadYgObHofX1pAvbQ8+Js+D1IEzlvUBKgpClNoARxkN6/BQP6Gjn3MrAAAEE1JREFUCo0PVg/GjBlzZ9asWUeVSuVfJ0+evC8oKOi+TSnJ+qQnSQb8tsH/+nhNTUbNsZrFldXVI+/evu0nk8tlRqNRSp2CzB1J/DzojE4JZeU4RMCYorAVDYSuNdsFVicxq732dHqds/Zv6KRBmFyc1FZLNVgz706dxCvE9uHo+e483uRrYvIZgEMRFvxYmYwMaM5oNMLDiJPL5XD+kbEs63/z5k0JPGHxwUDFAMTgpWBAJQmcx8A2W/zvy2SyVqlEwhlZljjCoT4z6OAcZzQYJEajUUIHNcqYwYCTyWRoA6FHS1ur1MfHh/P29obPAdvS0sIajUajj4+Pwd/fv3Xs2LHXJk2aVDZjxoycsLCwg8HBwc2dTnxOAIPzK1eufMEVaoKttl25cmXs7Rs3gm/euTPywb0Hg/R6vY/JqdAIrwzC1MTXkAfxD70GYXFp52FIHgEnsu5xDulyu/f2rP72LcO7dWzrQ29H/jXbZbv/pvbu5NPcXll6vbuekLZp2lVf2KaRqf+kZJCb6SVlWVZmNHJylmMl3l7eLXBekylkeqPeKMW3XCI3GFmjz+kzp+ZcvHBxdl1d3RBsEKKGOurwg8GPtX2ch+ffzJkzuYiIiKqxY8cdHj5s+EmplGvVGwzebW0GH6PR6A1ayL3kbVJG+v/bu9aYOK4rvDM7y8LyCG0jR7HSCGocjDEG2+DFyy6OAZFEsSq7Uiy1kdomBj/aNG3Bza/+a9JGdZL+qpq2xoBxrERKgTi2FTVlHzgRDxswphgwxDgmJuDYwc9dwz6m/e7ugWFZ9sFrFzQj0OzO3J1777n3fnPuueeez4kyOBwOuBUwbyOPRy1AA96H7L7T6RScolPgOM4pCAI8Eic83okTarXaqtFo7j322GNfxsTEjK5du/arQG3i02ZQW1tbVlN9rCxIm8GSgYG0MnAthjZ07do1Dc/z0+rhcrlE/NN1OlPH804fUEizGA6C6cjBpAmU/0Ld56zzAb25lULUBPbaCqZc/p7j6/fB5Mtq9EChoLQAM+ZbbOU4G29jujcBnCAIE0qlko+JiXG4XC7X+Ph4VH9vv66ltemXFy50Fre1tSlu3rzJDNi05o+3Oq7BIxAxN7Zv3347Jye7KiMzsyYhIeFSUlKS/ZtvvolhWVqtTJ2Ii4vDQGd99/79+8waTv0ZnxMTEydfBnfv3uWpL09MTDjj4+OddrudaQcpKSl2eNeH0moLAgYlJSUH8vPzT4eSsZxWlsByl0BnZ+eGtra2ks8++2x/Y2Nj9MjICJsKYLcgzgAGBBQBGKSkpCgKCgpGcnNzD2dlZR1PSUmZYcALtzxkMAh3C8j5L1sJdHd3p7S0tAAIXjGbzdGIMAQfGOyhIaMjHH0ABthmX1RUNKTX619PTU19f+3atdPW+CNBCD7BoK6urvxYVTWmCXFBLC1eLykp2S9rBpHQnHIZllIC7e3t61tbWw98/vnnB86ePatCHAGsLlAcARj84BsDMEAE72eeeea6wWB4Iy8vr2bVqlX3l7KsweS1IGBQWlp6wGAwnAomQzmNLIGVIgFME1paWvY1NjYePHv2rAAwgA8MNAMiO4UBESsNAIPi4uIhg8Hwh5ycnBOzLe+FUzazOR0dqq6sgmYQG4RmMFxaWrpfBoNwNqOcdzgkAM2go6PjZbPZ/IrJZFIjqAj2z0A7wGIWNAPYDBBYxAMG1wwGwx+zs7NrVq9ebQ1Hmf3luRBg8LUHDD6OtMrJ5ZElsJgSuHDhwlMdHR0/MxqNv25oaIgFGGCbPdtQJ4ps8xw8AGmaUFxcDDB4IzMzs8bfev9iljlkMDhZX3+osrKqrL+/P5a8nxB2DFoCKoh/FlYpPl6RvTUHYHBAr9fLsQfD1YpyvmGRQGdnZ2r7+fM/NZnMrxqNxjhME0gzoO3D2BsAzQAGxIIdBV/pDHmHc3NzjywLzeDbb799pL629lC1289AQ0vsIDEhMID6w6KvxscjRPnXJftkMAhLb5QzDasEurq60lqaml42my2/MJvNGgx8bAgimwEFIaWlxcLCwut5Ov3hbfptR5aFzQBgUPevuvLq6qrygYEBDe0C9AYDaAaauDhGXrK3tORgfn7+R2FtGTlzWQJLLAEYEM+1nHvZbDYdtFgs0QQGWE0gAyJpBh4/g6/1esPb6Rnp/1i3bt29JS5uwOx8Bjc5WX/yd5VHj5b1D/THQgPA4QcMRvaWMqcjGQwCiltOsJIk0N7ennmxs/PnJqPpgMlkiobNgFYTpNME8kAsKCgYzcvTvZ25adPfl42fQX1t/aGqqkpmM6AAIrNNE7Kzs2UwWEk9XK5L0BIAGHR1dr5kNlsABmq4HkMrkDodYV8ClhbBB7pjxw6AwTsbs7LeXRZgMDY2llj7YW3Z8eM1bGmRJOPLgIhpQk5OjgwGQXcfOeFKkgDAoLOjY6/F0rjPYrGwpUUAgZQTFB6IEjC4odPlvbM5e/O7a9asuRNpspgxTRgbHEusNwIM3iu7cuVKLIV6AhhA9aHVBEwfAAZarXakZF8pYiDKqwmR1rpyeRZVAhcvXsxoO3eu1Gy27DebzVGwD2CaAJdkilsApyNaTSgsLBzV6fLe3rBxw7vLwmYAA+JHdXXlNTXHf3vlypU42gksBQNUDmAAFMyRwWBRO5z88MiVAAyIHe3te40NxoNGo5HxFsDPAOMCYEAsRniBghy4qKho2KDPezNbq61YFkuLjIX55KnXKisrygcGvojFagL+YTOQhl6CLQFbNXO2bh3du68UBsT6yG02uWSyBBZeAlhabG1pLTEZGRjEwNsQS4vQDnDQ0iIcj9atW6fYuXPnlzp93uvr168/npyc/HDhSzS/J86YJohDQzHVn35afvRo5Wv9/f3xFFcN9GbwM6BwTQQG+U8/PfTjF3/yqgwG82sI+dfLTwI9PT1PtZ1re9FiNv3mPw0NCaOjo0wrkBoQ4YgEguDU1FTFc889d02vz/vTho0bq5YFGAwPD2v+/cknZZWVVdPAgKYJFJYc0wTwFmRt3nz7+ed3/kWfrz8qCMIYmhRBIBCsAYEXhIeC0qa0sdBOMU6nyxGNoC5OF+4hHQI3SCPk4Dt1C+nnYLpKqOnpmf6CnUjvhRoUBc8PtUxzySMY2UjTRFLAlVDL7p2eApJIOA39Rp6i9NK2pzaSPmsyEM4DnrMJNnuMI0alflSNSEKYArhsNptqaGgoq6W5ef/5c+d3t7a2RmE1AWMCBkQKoQ5tgTYqFRYWDm3L1b6l1en+uSzckTFNOHPqTHlNDaNXiyehgeaJAojCjgAwwDQBRsQ1a9aMPv7445dEhfjgofVhFKfkOJVSYIEIBUFwOZ2OKJdTJAJUFy8w8kh2ABdwBiUCO4Ohaoq/0JNqktfQR0PTPc+ZtehUTD967sxONDPun6+0onOKdHXWjusmXp06JEStPD8z2gy49eYyCCCbufwuEn4TbJ2J+3K2MqMbBqqP6PLXZtP7EsdzItK7prUZ78R7ihM9bccrXPbxCUFEjDSexUB08LySuz02lnznzp3k69evJw4PDzMbAZzxyDcH44QMiHA6ys/PH9Jqt76l0+uXBxiAhfnjjz4uP3asGqsJCRRcFJoBkTJAO8BnRuzouY5riFgMYwn2M0AoxOwiDWWOhpSGL/dmlAnU0PJ9WQLTcXcmPoYS3p4R80g4EimqtpR/gHYgEj8HxThEn8dngACmzxgTtJeHngk/A9yHAXH79u2DW3O1h9PT0yvS09OZlhFJxwyUxTThzKkzhyoqjpT19fU9QtFewYJMYcmlIZvtHm5DbxITmk5Qw5CQqfL+4tRHkoDkskS2BKQsR1TSUMCA+qEvLg3v0PveoEF05xS63K3huocUnSnsWVpaGoKbdG/blvvmD3ftOhFqfMKlaIWZBkRRVJ44fuKVioojv7906dKjEDYqrYmOnlR/8PbHYGculx4SE4rnDmSkNVbSAKTkDoSuJLBQGm4pBDJzOjE/zTzS6xcOmS5knrO9VKQsR8Hk502AQgOfNASi7cOziMqMKM9p/w7xJ+A79X0YEKExZ2RkOHbv3vVpnk73zo6iomlU6MGUbynS+Jx/fXL69J6jlVVv9PT0pCCuG6n70AwwwYc2wCJ2g84MSAgSB3AbKhSMMvohwMJuVwgggPBwwtHvwJUIAMF1TDGIgjpSz4yxyUOZPZcz5DOX30WqPCKtXPNtn9lAQ/qGl05lSRuAdoypMPEiYLAStydAAmOG6M2wmrBp06bbL7ywpyp/m/ZvWVrt5aUY3KHm4RMMmpubt1gsloNNTU27e3t7v3v16lXmcw0rqX18QiFEqWDoc8+PiNoJ1hXYt1wYPO4zzDgCr1SAdppXcArGCQcKddGlUHK8ghcABhxLh+dJf0e/l96ndPLZLS9ZDvOXQ6BY4lJCHtJC6K3PtGbVFGEKAIQ0Y9gQ8B2ggchHW7Zs6dmzZ8+fd+3a9R74UEIdqEuR3icYiKIomEymwubm5pc++OCDnX19fWyPAlYPqMKMCprjFWzJ0Y8mTbYEqQDpmje9mWxHWIoml/OYtFuBUieAOKRUZqQhSFi6FBMOO9MOcFB4dEwLYDjEtCEpKQlThOGCgoITzz777F/T0tKuRmoLzLpM09/frx4cHCysr6//VVdX1+aRkZFVWC8lVQh2gyhBpXBMTBlFvY2EtI2TbAa+5s/EUis1ukSqsORyrTwJBAIDaZ8me9e0/sy73/7S1QSAAzQEjUbjyMrK+kKv15/Ozc39UKvVNkWyBP2u2Q4ODkbfvHkzrbu7+/mOjo4f9fb2/uDGjRuxNpuNx79arRahzvMSrj7JgJdyGbLPUsG6CdAmVQoPLdqUjsG7F/3dXgOzH946ifS7v3t4YiDLYKD7rEohlI2SBlwnX4QOE0xdFiHbgI8MJIvZ7ntf95UumGtwJKB0PvMCAPA8o19jnRE0Z6jVpMbAuQlP7XYQGHFibGysKzExcSIpKelWUlLSRZ1O935GRkbDk08+ORxQGmFOEKgxWPEGBga+39fXZ7h8+fKWW7dufc/hcIB0EhxvsBm4BzrchiQHLAaiS8HxSo7hBbjhmBDBacccPdzcVQqec0HMeJJ7hE59VnC8SxSdk8/lRE8aOPlMrQmJbsOFB0gYz6Jvp6Np12c4NjHOzXkNGrf1wx9yzU5vFowzTZj7yqJk7+1kNEMO3jyYnEfG0uv0wvC8iahPip601DfdVqypA9dhp2I8vSBc9TrgvKZkDmWck1dybt9YxnHoUip4Dn8wgsOjFiSpzHlOrVaPJyQk3HniiScGV69e/d/k5OSW5OTk24sivAV+aFBgwAapKAojIyPfwVBTq91umSqVSmW1WpXe7q3epKeMv87TUB6NYFItoO9xHjdkUYxnf548Re6uewCJCb45+2Yj+wyVBNTbbXih3ILD4fobjjzn0i+pbf39luPvzeij93zMN321ly85BCsb6j8ajcbp0QjYjEL5QKm0Cu4+j0OlUj3E2Waz4eXIORwOcB6KVqt1PBJ3JvqV9VwaUf6NLAFZAitPAkFrBiuv6nKNZAnIEpg+bZLlIUtAloAsgf9L4H+Hh8MFVurbPQAAAABJRU5ErkJggg==;" vertex="1" parent="1">
          <mxGeometry x="230" y="130" width="73.74" height="80" as="geometry" />
        </mxCell>
      </root>
    </mxGraphModel>
  </diagram>
</mxfile>
